<?xml version="1.0" encoding="UTF-8" standalone="no"?>
<!-- Created with Inkscape (http://www.inkscape.org/) -->

<svg
   xmlns:dc="http://purl.org/dc/elements/1.1/"
   xmlns:cc="http://creativecommons.org/ns#"
   xmlns:rdf="http://www.w3.org/1999/02/22-rdf-syntax-ns#"
   xmlns:svg="http://www.w3.org/2000/svg"
   xmlns="http://www.w3.org/2000/svg"
   xmlns:sodipodi="http://sodipodi.sourceforge.net/DTD/sodipodi-0.dtd"
   xmlns:inkscape="http://www.inkscape.org/namespaces/inkscape"
   width="135.46643mm"
   height="135.46654mm"
   viewBox="0 0 135.46643 135.46654"
   version="1.1"
   id="svg3732"
   inkscape:version="0.92.3 (2405546, 2018-03-11)"
   sodipodi:docname="instagramm-logo.svg">
  <defs
     id="defs3726" />
  <sodipodi:namedview
     id="base"
     pagecolor="#ffffff"
     bordercolor="#666666"
     borderopacity="1.0"
     inkscape:pageopacity="0.0"
     inkscape:pageshadow="2"
     inkscape:zoom="0.35"
     inkscape:cx="270.28529"
     inkscape:cy="275.99976"
     inkscape:document-units="mm"
     inkscape:current-layer="layer1"
     showgrid="false"
     inkscape:window-width="1920"
     inkscape:window-height="1009"
     inkscape:window-x="-8"
     inkscape:window-y="-8"
     inkscape:window-maximized="1" />
  <metadata
     id="metadata3729">
    <rdf:RDF>
      <cc:Work
         rdf:about="">
        <dc:format>image/svg+xml</dc:format>
        <dc:type
           rdf:resource="http://purl.org/dc/dcmitype/StillImage" />
        <dc:title></dc:title>
      </cc:Work>
    </rdf:RDF>
  </metadata>
  <g
     inkscape:label="Ebene 1"
     inkscape:groupmode="layer"
     id="layer1"
     transform="translate(-34.320351,-86.39173)">
    <g
       style="clip-rule:evenodd;fill-rule:evenodd;image-rendering:optimizeQuality;shape-rendering:geometricPrecision;text-rendering:geometricPrecision"
       id="g3753"
       transform="matrix(0.26458333,0,0,0.26458333,34.320258,86.391664)">
      <path
         id="path3743"
         d="m 170.663,256.157 c -0.083,-47.121 38.055,-85.4 85.167,-85.482 47.121,-0.092 85.407,38.029 85.499,85.159 0.091,47.13 -38.047,85.4 -85.176,85.492 -47.112,0.09 -85.399,-38.039 -85.49,-85.169 z m -46.108,0.092 c 0.141,72.602 59.106,131.327 131.69,131.185 72.592,-0.14 131.35,-59.089 131.209,-131.691 -0.141,-72.577 -59.114,-131.336 -131.715,-131.194 -72.585,0.141 -131.325,59.114 -131.184,131.7 z M 361.659,119.157 c 0.033,16.954 13.817,30.682 30.772,30.649 16.961,-0.034 30.689,-13.811 30.664,-30.765 -0.033,-16.954 -13.818,-30.69 -30.78,-30.656 -16.962,0.033 -30.689,13.818 -30.656,30.772 z m -208.696,345.4 C 128.005,463.471 114.452,459.323 105.42,455.848 93.459,451.22 84.924,445.671 75.941,436.755 66.975,427.804 61.409,419.294 56.739,407.358 53.231,398.325 49.009,384.789 47.839,359.831 46.57,332.848 46.28,324.753 46.156,256.398 46.023,188.06 46.272,179.964 47.45,152.957 48.519,128.016 52.692,114.445 56.159,105.421 60.787,93.444 66.32,84.925 75.253,75.943 84.202,66.96 92.712,61.411 104.656,56.741 c 9.025,-3.526 22.561,-7.715 47.511,-8.9 26.998,-1.278 35.085,-1.551 103.423,-1.684 68.353,-0.133 76.448,0.108 103.456,1.294 24.94,1.086 38.51,5.217 47.527,8.709 11.968,4.628 20.503,10.145 29.478,19.094 8.974,8.95 14.54,17.443 19.21,29.413 3.524,8.999 7.714,22.552 8.892,47.494 1.285,26.998 1.576,35.094 1.7,103.432 0.132,68.355 -0.117,76.451 -1.302,103.442 -1.087,24.957 -5.226,38.52 -8.709,47.56 -4.629,11.953 -10.161,20.488 -19.103,29.471 -8.941,8.949 -17.451,14.531 -29.403,19.201 -9.009,3.517 -22.561,7.714 -47.494,8.9 -26.998,1.269 -35.086,1.56 -103.448,1.684 -68.338,0.133 -76.424,-0.124 -103.431,-1.294 z M 149.977,1.773 C 122.738,3.059 104.134,7.421 87.876,13.792 71.047,20.353 56.781,29.145 42.59,43.395 28.381,57.653 19.655,71.944 13.144,88.79 6.841,105.089 2.569,123.702 1.366,150.958 c -1.194,27.306 -1.468,36.015 -1.335,105.531 0.133,69.508 0.439,78.234 1.741,105.548 1.302,27.231 5.649,45.827 12.019,62.092 6.569,16.83 15.353,31.089 29.611,45.289 14.25,14.2 28.55,22.918 45.404,29.438 16.282,6.294 34.902,10.583 62.15,11.777 27.305,1.203 36.022,1.468 105.521,1.336 69.532,-0.133 78.25,-0.44 105.555,-1.734 27.239,-1.302 45.826,-5.664 62.1,-12.019 16.829,-6.585 31.095,-15.353 45.288,-29.611 14.191,-14.251 22.917,-28.55 29.428,-45.404 6.304,-16.282 10.592,-34.904 11.777,-62.134 1.195,-27.323 1.478,-36.049 1.344,-105.557 -0.133,-69.516 -0.447,-78.225 -1.741,-105.522 C 508.934,122.732 504.571,104.144 498.209,87.87 491.632,71.041 482.857,56.79 468.607,42.582 454.357,28.39 440.057,19.647 423.203,13.153 406.913,6.849 388.3,2.553 361.053,1.375 333.747,0.164 325.03,-0.101 255.506,0.031 185.999,0.164 177.282,0.462 149.977,1.773 Z"
         inkscape:connector-curvature="0"
         style="fill-rule:nonzero" />
    </g>
  </g>
</svg>
