<?xml version="1.0" encoding="utf-8"?>
<!-- Generator: Adobe Illustrator 24.1.2, SVG Export Plug-In . SVG Version: 6.00 Build 0)  -->
<svg version="1.1" id="Layer_1" xmlns="http://www.w3.org/2000/svg" xmlns:xlink="http://www.w3.org/1999/xlink" x="0px" y="0px"
	 viewBox="0 0 119.2 47.6" style="enable-background:new 0 0 119.2 47.6;" xml:space="preserve">
<style type="text/css">
	.st0{fill:#001489;}
</style>
<g id="XMLID_3027_">
	<g id="XMLID_3053_">
		<g>
			<path id="XMLID_9_" class="st0" d="M24.5,0c-0.3,0-0.5,0-0.8,0C10.6,0,0,10.6,0,23.8c0,13.1,10.6,23.8,23.8,23.8l0,0l0-18.2l0,0
				c-7.9,0-14.3-6.4-14.3-14.3c0-7.9,6.4-13.9,14.3-13.9l0,0c4.3,0,7.8,3.2,7.8,7.5c0,4.3-3.5,7.8-7.8,7.8l0,13
				c8.1,0,14.6-6.6,14.6-14.6C38.4,6.8,32.2,0.4,24.5,0z"/>
		</g>
	</g>
	<g id="XMLID_3031_">
		<path id="XMLID_3050_" class="st0" d="M112.7,25.1c3.8,0,6.3-2.6,6.3-6.3c0-3.8-2.5-6.2-6.3-6.2c-3.8,0-6.3,2.5-6.3,6.3
			C106.4,22.7,108.8,25.1,112.7,25.1z M112.6,13.4c0.6,0,2.5,0,2.5,5.4c0,4.9-1.2,5.5-2.3,5.5c-0.6,0-2.5,0-2.5-5.5
			C110.4,15,111,13.4,112.6,13.4z"/>
		<path id="XMLID_3049_" class="st0" d="M90.6,29c-1.3,0-2.2,0.9-2.2,2.2c0,1.3,0.9,2.1,2.2,2.1c1.3,0,2.2-0.9,2.2-2.2
			C92.7,29.9,91.9,29,90.6,29z"/>
		<path id="XMLID_3048_" class="st0" d="M45.5,36.1c-3.3-1-4.5-2-4.5-3.7c0-1.8,1.5-2.8,3-2.8c2.2,0,3.7,1.3,5.2,4.4l0,0.1h0.7
			l0-3.5l-0.1,0c-1.9-1.6-3.9-1.8-5.4-1.8c-3.8,0-6.3,2.3-6.3,5.7c0,3.5,3.1,4.5,5.5,5.3c2.8,0.9,4.5,1.9,4.5,3.9c0,1.4-1.1,3-3.4,3
			c-2.5,0-4.5-1.7-6.2-5.2l0-0.1h-0.7l0,3.9l0.1,0c2.9,2.1,5.6,2.1,6.4,2.1c4.7,0,6.3-3.3,6.3-6.1C50.7,38,48,36.8,45.5,36.1z"/>
		<polygon id="XMLID_3047_" class="st0" points="88.8,47.2 92.5,47.2 92.5,35 88.8,35.2 		"/>
		<path id="XMLID_3046_" class="st0" d="M73.7,34.9c-1.3,0-2.5,0.8-3.4,2.1v-2l-3.7,0.2v12h3.7l0-9c0.7-1.1,1.5-1.4,2-1.5
			c1.2-0.1,2,0.3,2.5,1l0,0.1h0.5v-2.4l-0.1,0C74.8,35,74.3,34.9,73.7,34.9z"/>
		<polygon id="XMLID_3045_" class="st0" points="83,43.9 79.7,35 75.8,35 80.6,47.4 82.8,47.4 87.8,35 86.5,35 		"/>
		<path id="XMLID_3042_" class="st0" d="M57.2,6.4L50,24.9h1.3l2.4-6.5h5.8l2.4,6.5h4.3L59.4,6.4H57.2z M59.2,17.3h-5l2.6-6.9
			L59.2,17.3z"/>
		<path id="XMLID_3041_" class="st0" d="M79.4,24.9l0-12.2l-3.7,0.1l0,8.9c-0.7,1-1.3,1.5-2.1,1.5c-1.2,0-1.7-0.7-1.7-2.3v-8.2
			l-3.7,0.1v8.5c0,2.4,1.4,3.8,3.6,3.8c1.5,0,2.9-0.8,4-2.3v2.1H79.4z"/>
		<path id="XMLID_3038_" class="st0" d="M91.1,13c-0.7-0.3-1.3-0.4-2.3-0.4c-1.8,0-3.4,0.7-4.5,1.9c-1,1.2-1.6,2.8-1.6,4.5
			c0,3.7,2.1,6.1,5.3,6.1c1.3,0,2.3-0.4,3.2-1.3V25l3.7-0.1V6.3l-3.7,0.2L91.1,13z M91.1,14.5v8.4c-0.5,0.5-0.9,0.7-1.7,0.7
			c-1.3,0-2.9-1.3-2.9-4.8c0-3.3,1-5.4,2.5-5.4C89.9,13.4,90.6,13.8,91.1,14.5z"/>
		<path id="XMLID_3037_" class="st0" d="M101.1,11.1c1.3,0,2.2-0.9,2.2-2.2c0-1.3-0.9-2.2-2.2-2.2c-1.3,0-2.2,0.9-2.2,2.2
			C98.9,10.3,99.8,11.1,101.1,11.1z"/>
		<polygon id="XMLID_3036_" class="st0" points="99.3,24.9 103,24.9 103,12.7 99.3,12.9 		"/>
		<path id="XMLID_3035_" class="st0" d="M106.1,44c-1,1.3-2.2,2-3.5,2c-2.6,0-3.5-2.6-3.5-5.1c0-3.2,1-5.3,2.7-5.3
			c1.7,0,2.7,0.7,3.9,3.2l0,0.1h0.5v-2.7l-0.1-0.1c-1-0.6-2.3-1.3-4.5-1.3c-3.9,0-6.5,2.6-6.5,6.5c0,3.7,2.4,6.1,6.1,6.1
			c2.3,0,4.1-1,5.4-3l0.1-0.1l-0.5-0.3L106.1,44z"/>
		<path id="XMLID_3032_" class="st0" d="M118.4,44c-1.1,1.4-2,2-3.4,2c-2.4,0-3.7-1.7-3.7-4.8V41h7.7l0-0.3c0.1-1.8-0.4-3.3-1.4-4.3
			c-1-1-2.4-1.5-4.1-1.5c-3.6,0-6.2,2.7-6.2,6.4c0,3.7,2.4,6.1,6.2,6.1c2.3,0,4-1,5.4-3.1l0.1-0.1l-0.5-0.3L118.4,44z M115.2,40
			h-3.9c0.2-3.6,1.2-4.3,2.1-4.3c0.5,0,0.8,0.2,1.1,0.5C115.1,36.8,115.4,38.1,115.2,40z"/>
	</g>
	<path id="XMLID_3028_" class="st0" d="M63.5,44c-1.1,1.4-2,2-3.4,2c-2.4,0-3.7-1.7-3.7-4.8V41h7.7l0-0.3c0.1-1.8-0.4-3.3-1.4-4.3
		c-1-1-2.4-1.5-4.1-1.5c-3.6,0-6.2,2.7-6.2,6.4c0,3.7,2.4,6.1,6.2,6.1c2.3,0,4-1,5.4-3.1l0.1-0.1l-0.5-0.3L63.5,44z M60.3,40h-3.9
		c0.2-3.6,1.2-4.3,2.1-4.3c0.5,0,0.8,0.2,1.1,0.5C60.2,36.8,60.5,38.1,60.3,40z"/>
</g>
</svg>
